# xmcd CD database file
#
# Track frame offsets:
#	150
#	14672
#	23420
#	38300
#	53512
#	66357
#	79937
#	92880
#	109537
#	121680
#	134807
#	148557
#	160470
#	169250
#	182877
#	199087
#
# Disc length: 2840 seconds
#
# Revision: 4
# Processed by: cddbd v1.5.2PL0 Copyright (c) Steve Scherf et al.
# Submitted via: CDex 1.51
#
DISCID=d60b1610
DTITLE=Benny Carter - Aspects
DYEAR=1959
DGENRE=Blues
TTITLE0=June In January
TTITLE1=February Fiesta
TTITLE2=March Wind
TTITLE3=I Ll Remenber April
TTITLE4=One Morning In May
TTITLE5=June Is Busting Out All Over
TTITLE6=Sleigh Ride In July
TTITLE7=August Moon
TTITLE8=September Song
TTITLE9=Something For October
TTITLE10=Swingin In November
TTITLE11=Roses In December
TTITLE12=February Fiesta (Mono Take)
TTITLE13=June Is Busting Out All Over (Mono Take)
TTITLE14=August Moon (Mono Take)
TTITLE15=Swingin In November (Mono Take)
EXTD=SOLER CARLOS\nROSARIO\nARGENTINA YEAR: 1959
EXTT0=Alain Bashung\n
EXTT1=Serge Lama\n
EXTT2=Henri Garat\n
EXTT3=Jane Birkin\n
EXTT4=유열&이은영
EXTT5=Alain Souchon\n
EXTT6=Serge Gainsbourg\n
EXTT7=ecords
EXTT8=Claude Fran ois\n
EXTT9=Michel Jonasz\n
EXTT10=Julien Clerc\n
EXTT11=Eddy Mitchell\n
EXTT12=The Smashing Pumpkins
EXTT13=Hexenhaus
EXTT14=Original TV Theme Medley
EXTT15=LuftSchutzKeller
PLAYORDER=
